<svg xmlns="http://www.w3.org/2000/svg" viewBox="0 0 500 500"><g id="freepik--Floor--inject-11"><ellipse id="freepik--Floor-2--inject-11" cx="249.99953" cy="310.90336" rx="244.72735" ry="149.76751" style="fill:#f5f5f5"></ellipse></g><g id="freepik--Sun--inject-11"><circle cx="348.90918" cy="55.4857" r="15.10775" style="fill:#fe5000"></circle></g><g id="freepik--Clouds--inject-11"><g id="freepik--Cloud--inject-11"><g id="freepik--Cloud-2--inject-11"><path d="M406.1568,71.6333c.0184-.3189-.0806-.6801-.3347-1.0898-1.2004-1.9358-5.9993-1.5128-8.11-.8215,.0657-.6602,.0462-1.096-.3277-2.0369-.4628-1.1635-1.8171-2.3669-3.1533-2.6869-1.2639-.3031-4.7875-.3333-5.7288,.7522,.2864-3.9798-3.53-4.9333-7.15-3.4471-.1317-4.3592-4.0587-6.8267-9.594-6.3049-4.6975,.443-8.8379,3.0736-8.8487,6.8589-1.2871-1.068-3.9935-.9164-5.1211-.7422-3.365,.5197-5.7566,2.5654-5.8541,5.1809-2.5276-1.8255-6.9338,.2199-8.0315,2.3795-1.0381-.2386-3.4876,.2506-4.1561,1.022-.3074,.3546-.4366,.6625-.4523,.9358h66.8623Z" style="fill:#fff"></path></g><g id="freepik--Cloud-3--inject-11"><path d="M373.192,55.9294c4.7683,.0001,8.0403,2.4016,8.1604,6.374,1.0649-.4373,2.1468-.6633,3.1364-.6633,2.3739,0,4.2157,1.3013,4.0136,4.1103,.6046-.6972,2.2745-.9341,3.7268-.9341,.8084,0,1.5497,.0735,2.0019,.1819,1.3362,.3201,2.6906,1.5234,3.1533,2.6869,.3739,.9409,.3935,1.3767,.3278,2.0369,.9727-.3186,2.5162-.5802,4.0155-.5802,1.7539,0,3.4474,.3582,4.0945,1.4017,.254,.4097,.353,.7709,.3347,1.0899h-66.8624c.0158-.2734,.1449-.5813,.4524-.9359,.5528-.6379,2.3234-1.0828,3.5068-1.0828,.2477,0,.4697,.0194,.6493,.0608,.7996-1.5732,3.3543-3.0857,5.6602-3.0855,.8596,.0001,1.685,.2104,2.3713,.706,.0975-2.6155,2.4891-4.6612,5.8541-5.1809,.4095-.0633,1.0268-.1236,1.7091-.1235,1.1967,0,2.5922,.1855,3.4119,.8658,.0109-3.7854,4.1512-6.416,8.8487-6.859,.4913-.0463,.9694-.069,1.4337-.069m0-.4437c-.4788,0-.9753,.0239-1.4753,.071-4.3052,.4059-8.6656,2.7613-9.1968,6.5373-.93-.4409-2.1089-.5461-3.0222-.5462-.8514,0-1.5262,.0901-1.7769,.1288-3.3088,.5111-5.6843,2.4343-6.1496,4.8914-.5912-.2801-1.2637-.4216-2.008-.4217-2.2402-.0002-4.8459,1.3666-5.8946,3.0438-.128-.0127-.2664-.0191-.4149-.0191-1.1616,0-3.1432,.4294-3.8422,1.2359-.3536,.408-.5369,.8007-.56,1.2008l-.0271,.4693h67.7512l.0243-.4181c.0245-.4269-.1103-.8809-.4008-1.3492-.8258-1.332-2.8874-1.6116-4.4714-1.6116-1.1674,0-2.4893,.1629-3.5439,.4277-.0114-.4602-.1122-.913-.3871-1.6045-.5325-1.3392-2.021-2.6094-3.4623-2.9547-.5067-.1214-1.2937-.194-2.1052-.194-.8858,0-2.2985,.0816-3.2855,.5365-.0772-.9627-.4136-1.7833-.9922-2.4049-.7961-.8555-1.9935-1.3078-3.4627-1.3078-.8732,0-1.8086,.1659-2.736,.4827-.4251-3.7837-3.7149-6.1932-8.5608-6.1934h0Z" style="fill:#fe5000"></path></g><g id="freepik--Cloud-4--inject-11" style="opacity:.5"><path d="M373.192,55.9294c4.7683,.0001,8.0403,2.4016,8.1604,6.374,1.0649-.4373,2.1468-.6633,3.1364-.6633,2.3739,0,4.2157,1.3013,4.0136,4.1103,.6046-.6972,2.2745-.9341,3.7268-.9341,.8084,0,1.5497,.0735,2.0019,.1819,1.3362,.3201,2.6906,1.5234,3.1533,2.6869,.3739,.9409,.3935,1.3767,.3278,2.0369,.9727-.3186,2.5162-.5802,4.0155-.5802,1.7539,0,3.4474,.3582,4.0945,1.4017,.254,.4097,.353,.7709,.3347,1.0899h-66.8624c.0158-.2734,.1449-.5813,.4524-.9359,.5528-.6379,2.3234-1.0828,3.5068-1.0828,.2477,0,.4697,.0194,.6493,.0608,.7996-1.5732,3.3543-3.0857,5.6602-3.0855,.8596,.0001,1.685,.2104,2.3713,.706,.0975-2.6155,2.4891-4.6612,5.8541-5.1809,.4095-.0633,1.0268-.1236,1.7091-.1235,1.1967,0,2.5922,.1855,3.4119,.8658,.0109-3.7854,4.1512-6.416,8.8487-6.859,.4913-.0463,.9694-.069,1.4337-.069m0-.4437c-.4788,0-.9753,.0239-1.4753,.071-4.3052,.4059-8.6656,2.7613-9.1968,6.5373-.93-.4409-2.1089-.5461-3.0222-.5462-.8514,0-1.5262,.0901-1.7769,.1288-3.3088,.5111-5.6843,2.4343-6.1496,4.8914-.5912-.2801-1.2637-.4216-2.008-.4217-2.2402-.0002-4.8459,1.3666-5.8946,3.0438-.128-.0127-.2664-.0191-.4149-.0191-1.1616,0-3.1432,.4294-3.8422,1.2359-.3536,.408-.5369,.8007-.56,1.2008l-.0271,.4693h67.7512l.0243-.4181c.0245-.4269-.1103-.8809-.4008-1.3492-.8258-1.332-2.8874-1.6116-4.4714-1.6116-1.1674,0-2.4893,.1629-3.5439,.4277-.0114-.4602-.1122-.913-.3871-1.6045-.5325-1.3392-2.021-2.6094-3.4623-2.9547-.5067-.1214-1.2937-.194-2.1052-.194-.8858,0-2.2985,.0816-3.2855,.5365-.0772-.9627-.4136-1.7833-.9922-2.4049-.7961-.8555-1.9935-1.3078-3.4627-1.3078-.8732,0-1.8086,.1659-2.736,.4827-.4251-3.7837-3.7149-6.1932-8.5608-6.1934h0Z" style="fill:#fff"></path></g></g><g id="freepik--Cloud-5--inject-11"><g id="freepik--Cloud-6--inject-11"><path d="M390.2215,102.5875c-.0245-.4248,.1073-.9056,.4457-1.4512,1.5984-2.5778,7.9887-2.0146,10.7994-1.0939-.0873-.8793-.0615-1.4595,.4364-2.7125,.6163-1.5494,2.4199-3.1518,4.1992-3.5781,1.683-.4034,6.375-.4436,7.6284,1.0018-.3813-5.2996,4.7008-6.5692,9.5212-4.5902,.1754-5.8049,5.4046-9.0907,12.7758-8.3958,6.2554,.5899,11.7686,4.0929,11.7831,9.1335,1.7138-1.4222,5.3178-1.2203,6.8193-.9884,4.4809,.6921,7.6657,3.4162,7.7956,6.8991,3.3658-2.4309,9.2332,.2928,10.6949,3.1685,1.3824-.3177,4.6442,.3338,5.5344,1.361,.4093,.4722,.5813,.8823,.6024,1.2462h-89.0358Z" style="fill:#fff"></path></g><g id="freepik--Cloud-7--inject-11"><path d="M434.1184,81.6756c.6182,0,1.2548,.0303,1.909,.092,6.2554,.5899,11.7688,4.0929,11.7833,9.1336,1.0916-.9059,2.9499-1.1529,4.5434-1.1529,.9085-.0001,1.7306,.0802,2.2759,.1644,4.4809,.6921,7.6656,3.4162,7.7954,6.8992,.914-.6601,2.013-.9401,3.1577-.9403,3.0706-.0002,6.4725,2.014,7.5373,4.1087,.2391-.055,.5349-.0808,.8646-.0808,1.5759-.0002,3.9337,.5924,4.6698,1.4418,.4094,.4722,.5813,.8823,.6024,1.2462h-89.0358c-.0245-.4248,.1073-.9056,.4457-1.4512,.8617-1.3897,3.1168-1.8666,5.4522-1.8666,1.9966,0,4.052,.3483,5.3473,.7727-.0875-.8792-.0615-1.4595,.4364-2.7125,.6161-1.5493,2.4197-3.1518,4.1991-3.5779,.602-.1444,1.5892-.2423,2.6658-.2423,1.934,0,4.1575,.3155,4.9626,1.2439-.269-3.7405,2.1836-5.4733,5.3446-5.4734,1.3178,0,2.7584,.301,4.1766,.8832,.1598-5.2898,4.517-8.4875,10.8667-8.4878m0-.5908c-6.453,.0003-10.8337,3.209-11.3998,8.2474-1.235-.4219-2.4806-.6428-3.6435-.6428-1.9564,0-3.5508,.6022-4.611,1.7415-.7704,.8277-1.2184,1.9205-1.3212,3.2024-1.3143-.6057-3.1954-.7144-4.375-.7144-1.0807,0-2.1287,.0967-2.8034,.2584-1.9192,.4598-3.9014,2.1511-4.6104,3.9344-.3661,.9209-.5003,1.5238-.5156,2.1367-1.4043-.3525-3.1645-.5695-4.7192-.5695-2.1094,0-4.8545,.3724-5.9541,2.146-.3869,.6237-.5663,1.2282-.5337,1.7967l.0323,.5567h90.2194l-.036-.6249c-.0309-.5328-.275-1.0559-.7458-1.5991-.9309-1.0739-3.5696-1.6458-5.1164-1.6456-.1977,0-.3819,.0084-.5524,.0253-1.3965-2.2334-4.8664-4.0534-7.8495-4.0532-.9912,.0002-1.8866,.1886-2.6738,.5616-.6197-3.272-3.7829-5.833-8.1891-6.5136-.3338-.0515-1.2323-.1714-2.3661-.1714-1.2162,.0001-2.786,.1402-4.0245,.7273-.7074-5.0282-6.5138-8.1647-12.2467-8.7054-.6658-.0627-1.3271-.0945-1.9645-.0945h0Z" style="fill:#fe5000"></path></g><g id="freepik--Cloud-8--inject-11" style="opacity:.5"><path d="M434.1184,81.6756c.6182,0,1.2548,.0303,1.909,.092,6.2554,.5899,11.7688,4.0929,11.7833,9.1336,1.0916-.9059,2.9499-1.1529,4.5434-1.1529,.9085-.0001,1.7306,.0802,2.2759,.1644,4.4809,.6921,7.6656,3.4162,7.7954,6.8992,.914-.6601,2.013-.9401,3.1577-.9403,3.0706-.0002,6.4725,2.014,7.5373,4.1087,.2391-.055,.5349-.0808,.8646-.0808,1.5759-.0002,3.9337,.5924,4.6698,1.4418,.4094,.4722,.5813,.8823,.6024,1.2462h-89.0358c-.0245-.4248,.1073-.9056,.4457-1.4512,.8617-1.3897,3.1168-1.8666,5.4522-1.8666,1.9966,0,4.052,.3483,5.3473,.7727-.0875-.8792-.0615-1.4595,.4364-2.7125,.6161-1.5493,2.4197-3.1518,4.1991-3.5779,.602-.1444,1.5892-.2423,2.6658-.2423,1.934,0,4.1575,.3155,4.9626,1.2439-.269-3.7405,2.1836-5.4733,5.3446-5.4734,1.3178,0,2.7584,.301,4.1766,.8832,.1598-5.2898,4.517-8.4875,10.8667-8.4878m0-.5908c-6.453,.0003-10.8337,3.209-11.3998,8.2474-1.235-.4219-2.4806-.6428-3.6435-.6428-1.9564,0-3.5508,.6022-4.611,1.7415-.7704,.8277-1.2184,1.9205-1.3212,3.2024-1.3143-.6057-3.1954-.7144-4.375-.7144-1.0807,0-2.1287,.0967-2.8034,.2584-1.9192,.4598-3.9014,2.1511-4.6104,3.9344-.3661,.9209-.5003,1.5238-.5156,2.1367-1.4043-.3525-3.1645-.5695-4.7192-.5695-2.1094,0-4.8545,.3724-5.9541,2.146-.3869,.6237-.5663,1.2282-.5337,1.7967l.0323,.5567h90.2194l-.036-.6249c-.0309-.5328-.275-1.0559-.7458-1.5991-.9309-1.0739-3.5696-1.6458-5.1164-1.6456-.1977,0-.3819,.0084-.5524,.0253-1.3965-2.2334-4.8664-4.0534-7.8495-4.0532-.9912,.0002-1.8866,.1886-2.6738,.5616-.6197-3.272-3.7829-5.833-8.1891-6.5136-.3338-.0515-1.2323-.1714-2.3661-.1714-1.2162,.0001-2.786,.1402-4.0245,.7273-.7074-5.0282-6.5138-8.1647-12.2467-8.7054-.6658-.0627-1.3271-.0945-1.9645-.0945h0Z" style="fill:#fff"></path></g></g><g id="freepik--Cloud-9--inject-11"><g id="freepik--Cloud-10--inject-11"><path d="M34.4695,69.0414c-.0229-.3959,.1-.8439,.4153-1.3524,1.4895-2.4021,7.4445-1.8773,10.0636-1.0194-.0813-.8193-.0572-1.36,.4068-2.5276,.5742-1.4439,2.2549-2.9371,3.913-3.3343,1.5684-.3759,5.9407-.4134,7.1087,.9335-.3553-4.9385,4.3805-6.1217,8.8726-4.2775,.1634-5.4094,5.0363-8.4713,11.9053-7.8238,5.8292,.5497,10.9669,3.814,10.9803,8.5113,1.5971-1.3254,4.9555-1.1372,6.3547-.9211,4.1756,.6449,7.1435,3.1835,7.2645,6.4291,3.1365-2.2653,8.6042,.2729,9.9663,2.9526,1.2882-.296,4.3278,.311,5.1574,1.2683,.3814,.44,.5417,.8222,.5613,1.1613H34.4695Z" style="fill:#fff"></path></g><g id="freepik--Cloud-11--inject-11"><path d="M75.3757,49.5542c.576,0,1.1693,.0282,1.779,.0857,5.8292,.5497,10.967,3.814,10.9804,8.5114,1.0173-.8443,2.749-1.0744,4.2339-1.0744,.8466-.0001,1.6127,.0747,2.1208,.1532,4.1756,.6449,7.1434,3.1835,7.2644,6.4292,.8517-.6152,1.8758-.8761,2.9425-.8762,2.8614-.0003,6.0316,1.8767,7.0238,3.8287,.2229-.0512,.4985-.0753,.8057-.0753,1.4685-.0001,3.6657,.552,4.3517,1.3436,.3815,.44,.5417,.8222,.5613,1.1613H34.4694c-.0229-.3959,.1-.8439,.4153-1.3524,.803-1.295,2.9044-1.7394,5.0808-1.7394,1.8605,0,3.7759,.3246,4.9829,.72-.0815-.8192-.0572-1.36,.4068-2.5276,.5741-1.4438,2.2548-2.9371,3.9129-3.3342,.561-.1346,1.4809-.2258,2.4842-.2258,1.8022,0,3.8743,.294,4.6245,1.1592-.2507-3.4857,2.0348-5.1004,4.9805-5.1005,1.228,0,2.5705,.2805,3.8921,.823,.1489-4.9293,4.2092-7.9093,10.1263-7.9095m0-.5505c-6.0133,.0002-10.0956,2.9903-10.6232,7.6854-1.1508-.3932-2.3115-.599-3.3952-.599-1.8231,0-3.3089,.5612-4.2969,1.6229-.7179,.7713-1.1354,1.7897-1.2311,2.9842-1.2248-.5644-2.9778-.6657-4.077-.6657-1.007,0-1.9837,.0901-2.6124,.2408-1.7885,.4285-3.6356,2.0046-4.2963,3.6663-.3412,.8582-.4662,1.42-.4805,1.9911-1.3085-.3284-2.9489-.5306-4.3976-.5306-1.9657,0-4.5238,.347-5.5485,1.9998-.3605,.5811-.5277,1.1445-.4973,1.6743l.0301,.5187H118.0226l-.0336-.5823c-.0288-.4965-.2562-.9839-.6949-1.4901-.8675-1.0008-3.3265-1.5337-4.7679-1.5336-.1842,0-.3559,.0079-.5148,.0236-1.3013-2.0812-4.5348-3.7772-7.3147-3.777-.9236,.0001-1.7581,.1757-2.4916,.5233-.5775-3.0491-3.5252-5.4356-7.6312-6.0698-.311-.048-1.1484-.1598-2.2049-.1598-1.1333,.0001-2.5962,.1307-3.7503,.6778-.6592-4.6856-6.07-7.6084-11.4123-8.1123-.6205-.0584-1.2367-.088-1.8307-.088h0Z" style="fill:#fe5000"></path></g><g id="freepik--Cloud-12--inject-11" style="opacity:.5"><path d="M75.3757,49.5542c.576,0,1.1693,.0282,1.779,.0857,5.8292,.5497,10.967,3.814,10.9804,8.5114,1.0173-.8443,2.749-1.0744,4.2339-1.0744,.8466-.0001,1.6127,.0747,2.1208,.1532,4.1756,.6449,7.1434,3.1835,7.2644,6.4292,.8517-.6152,1.8758-.8761,2.9425-.8762,2.8614-.0003,6.0316,1.8767,7.0238,3.8287,.2229-.0512,.4985-.0753,.8057-.0753,1.4685-.0001,3.6657,.552,4.3517,1.3436,.3815,.44,.5417,.8222,.5613,1.1613H34.4694c-.0229-.3959,.1-.8439,.4153-1.3524,.803-1.295,2.9044-1.7394,5.0808-1.7394,1.8605,0,3.7759,.3246,4.9829,.72-.0815-.8192-.0572-1.36,.4068-2.5276,.5741-1.4438,2.2548-2.9371,3.9129-3.3342,.561-.1346,1.4809-.2258,2.4842-.2258,1.8022,0,3.8743,.294,4.6245,1.1592-.2507-3.4857,2.0348-5.1004,4.9805-5.1005,1.228,0,2.5705,.2805,3.8921,.823,.1489-4.9293,4.2092-7.9093,10.1263-7.9095m0-.5505c-6.0133,.0002-10.0956,2.9903-10.6232,7.6854-1.1508-.3932-2.3115-.599-3.3952-.599-1.8231,0-3.3089,.5612-4.2969,1.6229-.7179,.7713-1.1354,1.7897-1.2311,2.9842-1.2248-.5644-2.9778-.6657-4.077-.6657-1.007,0-1.9837,.0901-2.6124,.2408-1.7885,.4285-3.6356,2.0046-4.2963,3.6663-.3412,.8582-.4662,1.42-.4805,1.9911-1.3085-.3284-2.9489-.5306-4.3976-.5306-1.9657,0-4.5238,.347-5.5485,1.9998-.3605,.5811-.5277,1.1445-.4973,1.6743l.0301,.5187H118.0226l-.0336-.5823c-.0288-.4965-.2562-.9839-.6949-1.4901-.8675-1.0008-3.3265-1.5337-4.7679-1.5336-.1842,0-.3559,.0079-.5148,.0236-1.3013-2.0812-4.5348-3.7772-7.3147-3.777-.9236,.0001-1.7581,.1757-2.4916,.5233-.5775-3.0491-3.5252-5.4356-7.6312-6.0698-.311-.048-1.1484-.1598-2.2049-.1598-1.1333,.0001-2.5962,.1307-3.7503,.6778-.6592-4.6856-6.07-7.6084-11.4123-8.1123-.6205-.0584-1.2367-.088-1.8307-.088h0Z" style="fill:#fff"></path></g></g></g><g id="freepik--Shadow_3--inject-11"><polygon id="freepik--Shadow--inject-11" points="133.4911 202.26761 71.1211 238.27691 56.4872 229.82801 118.8572 193.81871 133.4911 202.26761" style="fill:#e0e0e0"></polygon></g><g id="freepik--Score_board--inject-11"><g id="freepik--Scoreboard--inject-11"><g><polygon points="79.7754 155.40431 76.9713 157.02301 72.2179 226.38241 75.022 224.76371 79.7754 155.40431" style="fill:#e0e0e0"></polygon><polygon points="79.7754 155.40431 76.9713 157.02301 72.2179 226.38241 75.022 224.76371 79.7754 155.40431" style="opacity:.2"></polygon><path d="M76.2531,167.50001l11.041-7.1983,5.6635,1.7988v-3.1937l-18.1654-5.7759,.0007,.004h0l-4.9269,71.8896,2.3519,1.3579,4.0352-58.8824Zm.2302-3.3593l.488-7.1177,7.013,2.2275-7.501,4.8902Z" style="fill:#ebebeb"></path><polygon points="77.5963 151.51221 74.7922 153.13091 92.9576 158.90681 95.7617 157.28811 77.5963 151.51221" style="fill:#e0e0e0"></polygon><polygon points="95.7617 157.28811 92.9576 158.90681 92.9576 162.10051 95.7617 160.48181 95.7617 157.28811" style="fill:#263238"></polygon><polygon points="87.5101 160.37041 87.2941 160.30171 76.2531 167.50001 79.0572 165.88131 87.5101 160.37041" style="fill:#e0e0e0"></polygon></g><g><polygon points="119.093 132.69821 116.2889 134.31691 111.5355 203.67631 114.3396 202.05761 119.093 132.69821" style="fill:#e0e0e0"></polygon><polygon points="119.093 132.69821 116.2889 134.31691 111.5355 203.67631 114.3396 202.05761 119.093 132.69821" style="opacity:.2"></polygon><path d="M115.5707,144.79391l11.041-7.1983,5.6635,1.7988v-3.1937l-18.1654-5.7759,.0006,.004h0l-4.9269,71.8896,2.352,1.3579,4.0352-58.8824Zm.2302-3.3593l.488-7.1177,7.013,2.2275-7.501,4.8902Z" style="fill:#ebebeb"></path><polygon points="116.9139 128.80611 114.1098 130.42481 132.2752 136.20071 135.0793 134.58201 116.9139 128.80611" style="fill:#e0e0e0"></polygon><polygon points="135.0793 134.58201 132.2752 136.20071 132.2752 139.39441 135.0793 137.77571 135.0793 134.58201" style="fill:#263238"></polygon><polygon points="126.8277 137.66421 126.6117 137.59561 115.5707 144.79391 118.3748 143.17521 126.8277 137.66421" style="fill:#e0e0e0"></polygon></g><g><g><g id="freepik--Match_Score--inject-11"><g><polygon points="136.8273 110.64141 88.912 138.31511 88.912 181.45971 136.8272 153.78601 136.8273 110.64141" style="fill:#455a64"></polygon><polygon points="136.8273 110.64141 134.2498 109.15331 86.3345 136.82711 88.912 138.31511 136.8273 110.64141" style="fill:#37474f"></polygon><polygon points="86.3345 136.82711 86.3343 179.97171 88.912 181.45971 88.912 138.31511 86.3345 136.82711" style="fill:#263238"></polygon></g><g><g><g><polygon points="91.8896 143.97261 107.3548 135.04371 107.3545 152.90161 91.8902 161.82931 91.8896 143.97261" style="fill:#fe5000"></polygon><polygon points="106.3053 152.24581 107.3545 152.90161 107.3548 135.04371 106.3056 135.64951 106.3053 152.24581" style="opacity:.2"></polygon><polygon points="106.3056 135.64951 91.8896 143.97261 91.89 160.56791 106.3053 152.24581 106.3056 135.64951" style="fill:#fe5000"></polygon><polygon points="106.3056 135.64951 91.8896 143.97261 91.89 160.56791 106.3053 152.24581 106.3056 135.64951" style="fill:#fff;opacity:.5"></polygon><g><path d="M96.4791,154.05571l-1.4277,.8238c-.3941,.2277-.7312,.2086-1.01-.06-.2789-.2685-.4177-.7068-.4177-1.3135v-4.3965c0-.6066,.1388-1.2043,.4177-1.7947,.2788-.5902,.6159-.9999,1.01-1.227l1.4277-.8244c.3941-.2276,.7299-.2071,1.0088,.0615,.2788,.2685,.4189,.7054,.4189,1.312v4.3965c0,.6066-.1401,1.2058-.4189,1.7961-.2789,.5909-.6147,.9986-1.0088,1.2262Zm-1.4277-.2754l1.4277-.8238c.1152-.0668,.228-.1766,.3395-.3326l-2.481-3.8318v4.3017c0,.3036,.0694,.5221,.2088,.6568,.1394,.1339,.3079,.1438,.505,.0297Zm1.4277-7.4176l-1.4277,.8244c-.119,.0686-.233,.1804-.3408,.334l2.4823,3.8297v-4.3016c0-.3031-.0694-.5222-.2094-.6561-.1394-.134-.3074-.1445-.5044-.0304Z" style="fill:#fff"></path><path d="M102.1948,150.75601l-1.4277,.8238c-.3941,.2277-.7312,.2086-1.01-.06-.2789-.2685-.4177-.7068-.4177-1.3135v-4.3965c0-.6066,.1388-1.2043,.4177-1.7947,.2788-.5902,.6159-.9999,1.01-1.227l1.4277-.8244c.3941-.2276,.73-.2071,1.0088,.0615,.2788,.2685,.4189,.7054,.4189,1.3121v4.3964c0,.6066-.1401,1.2058-.4189,1.7961-.2788,.591-.6147,.9986-1.0088,1.2262Zm-1.4277-.2754l1.4277-.8238c.1152-.0668,.228-.1766,.3395-.3326l-2.481-3.8318v4.3017c0,.3036,.0694,.5221,.2088,.6568,.1394,.1339,.3079,.1439,.505,.0297Zm1.4277-7.4176l-1.4277,.8244c-.119,.0686-.233,.1804-.3408,.334l2.4823,3.8297v-4.3016c0-.3031-.0694-.5222-.2094-.6561-.1394-.1339-.3074-.1445-.5044-.0304Z" style="fill:#fff"></path></g></g><path d="M95.1539,137.62081l8.9368-5.16c.3794-.2191,.6869-.0635,.6867,.3475,0,.411-.3076,.9216-.687,1.1407l-8.9365,5.1596c-.3794,.219-.6869,.0635-.6869-.3473s.3075-.9214,.6869-1.1405Z" style="fill:#37474f"></path><path d="M108.676,154.26691l8.9368-5.1599c.3793-.2191,.6868-.0635,.6867,.3475-.0001,.4109-.3076,.9216-.687,1.1407l-8.9366,5.1596c-.3793,.219-.6869,.0635-.6869-.3473,0-.4109,.3076-.9215,.687-1.1406Z" style="fill:#37474f"></path><path d="M110.0293,138.14341l6.0377-3.4925c.3794-.2191,.6869-.0635,.6867,.3475,0,.411-.3076,.9216-.687,1.1407l-6.0375,3.4921c-.3793,.219-.6869,.0635-.6869-.3473s.3076-.9214,.687-1.1405Z" style="fill:#37474f"></path></g><g><g><polygon points="119.1847 128.21141 134.65 119.28251 134.6496 137.14041 119.1853 146.06811 119.1847 128.21141" style="fill:#fe5000"></polygon><polygon points="133.6005 136.48471 134.6496 137.14041 134.65 119.28251 133.6008 119.88821 133.6005 136.48471" style="opacity:.2"></polygon><polygon points="133.6008 119.88821 119.1848 128.21141 119.1852 144.80661 133.6005 136.48471 133.6008 119.88821" style="fill:#fff;opacity:.5"></polygon><g><path d="M123.774,138.29431l-1.4277,.8244c-.3941,.2271-.7312,.2086-1.01-.0606-.2789-.2679-.4177-.7063-.4177-1.3135v-4.3959c0-.6073,.1388-1.2049,.4177-1.7947,.2788-.5908,.6159-1,1.01-1.227l1.4277-.8244c.3941-.2283,.73-.2071,1.0088,.0609,.2789,.2691,.4189,.706,.4189,1.312v4.3971c0,.606-.14,1.2052-.4189,1.7961-.2788,.5909-.6147,.9986-1.0088,1.2256Zm-1.4277-.2749l1.4277-.8244c.1153-.0661,.2281-.1765,.3396-.3326l-2.4811-3.8311v4.3017c0,.3036,.0694,.5221,.2088,.6561s.3079,.1439,.505,.0303Zm1.4277-7.4176l-1.4277,.8245c-.1189,.0679-.233,.1798-.3408,.334l2.4824,3.8297v-4.3017c0-.3036-.0694-.5221-.2095-.6566-.1394-.134-.3074-.1445-.5044-.0299Z" style="fill:#fff"></path><path d="M129.4848,134.99791l-1.4277,.8245c-.3941,.227-.7312,.2085-1.01-.0607-.2789-.2679-.4177-.7063-.4177-1.3135v-4.3959c0-.6072,.1388-1.2049,.4177-1.7946,.2788-.5909,.6159-1,1.01-1.2271l1.4277-.8244c.3941-.2283,.7299-.2071,1.0088,.0609,.2788,.2691,.4189,.706,.4189,1.312v4.3971c0,.606-.1401,1.2052-.4189,1.7962-.2789,.5908-.6147,.9985-1.0088,1.2255Zm-1.4277-.2749l1.4277-.8243c.1152-.0662,.228-.1766,.3395-.3326l-2.481-3.8311v4.3016c0,.3036,.0694,.5222,.2088,.6561,.1394,.134,.3079,.1439,.505,.0303Zm1.4277-7.4175l-1.4277,.8244c-.119,.068-.233,.1798-.3408,.3341l2.4823,3.8296v-4.3017c0-.3036-.0694-.5221-.2094-.6566-.1394-.134-.3074-.1445-.5044-.0298Z" style="fill:#fff"></path></g></g><path d="M122.449,121.86521l8.9368-5.16c.3794-.2191,.6869-.0635,.6868,.3475s-.3076,.9216-.687,1.1407l-8.9366,5.1596c-.3793,.2189-.6869,.0635-.6869-.3473s.3076-.9215,.6869-1.1405Z" style="fill:#37474f"></path></g></g></g><g><polygon points="101.5165 170.90891 101.5168 161.97971 124.7142 148.58701 124.7137 157.51591 101.5165 170.90891" style="fill:#fe5000"></polygon><polygon points="123.6648 149.19281 124.7142 148.58701 124.7137 157.51591 123.6645 156.86011 123.6648 149.19281" style="opacity:.2"></polygon><polygon points="123.6645 156.86011 123.6648 149.19281 101.5167 161.97981 101.5165 169.64741 123.6645 156.86011" style="fill:#fff;opacity:.5"></polygon><g><path d="M106.6288,165.51041l-.9276,.5358c-.2554,.1473-.4747,.1342-.6556-.0399-.181-.174-.2715-.4586-.2715-.8528v-2.8553c0-.3941,.0905-.7824,.2715-1.1661,.1809-.3836,.4002-.6494,.6556-.7967l.9276-.5357c.2559-.1481,.474-.1335,.6556,.0398,.1809,.1741,.272,.458,.272,.8521v2.8554c0,.3941-.0911,.7831-.272,1.1667-.1816,.3844-.3997,.6487-.6556,.7967Zm-.9276-.1781l.9276-.5357c.0749-.0432,.1481-.1153,.2212-.217l-1.6123-2.487v2.7934c0,.197,.0458,.3387,.1362,.4251,.0905,.0889,.1996,.0943,.3273,.0212Zm.9276-4.8188l-.9276,.5358c-.0769,.0441-.1506,.1168-.2207,.2163l1.6124,2.4882v-2.7946c0-.1971-.0458-.3388-.1363-.4251-.0905-.0876-.1996-.0943-.3278-.0206Z" style="fill:#fff"></path><path d="M110.3381,163.36891l-.9277,.5357c-.2553,.1473-.4746,.1342-.6556-.0399-.1809-.1739-.2714-.4586-.2714-.8527v-2.8554c0-.3941,.0905-.7823,.2714-1.1661,.181-.3836,.4003-.6493,.6556-.7966l.9277-.5358c.2559-.148,.474-.1334,.6556,.0399,.1809,.174,.272,.458,.272,.8521v2.8554c0,.3941-.0911,.7831-.272,1.1667-.1816,.3844-.3997,.6486-.6556,.7967Zm-.9277-.1781l.9277-.5358c.0749-.0431,.1481-.1152,.2212-.2169l-1.6124-2.487v2.7934c0,.197,.0459,.3386,.1363,.4251,.0905,.0888,.1996,.0942,.3272,.0212Zm.9277-4.8189l-.9277,.5358c-.0768,.0441-.1512,.1176-.2206,.2163l1.6124,2.4883v-2.7947c0-.1971-.0459-.3387-.1363-.4251-.0905-.0876-.1996-.0943-.3278-.0206Z" style="fill:#fff"></path><path d="M114.8182,160.78211l-.9277,.5358c-.2553,.1473-.4747,.1341-.6556-.0399s-.2714-.4587-.2714-.8528v-2.8554c0-.3941,.0905-.7823,.2714-1.166s.4003-.6494,.6556-.7967l.9277-.5358c.2559-.148,.474-.1334,.6555,.0399,.181,.1741,.2721,.458,.2721,.8521v2.8554c0,.3941-.0911,.7831-.2721,1.1667-.1815,.3844-.3996,.6487-.6555,.7967Zm-.9277-.1781l.9277-.5357c.0749-.0432,.1481-.1153,.2211-.217l-1.6123-2.487v2.7934c0,.197,.0459,.3387,.1363,.4251,.0905,.0889,.1996,.0943,.3272,.0212Zm.9277-4.8188l-.9277,.5358c-.0768,.0441-.1512,.1175-.2206,.2163l1.6123,2.4882v-2.7946c0-.1971-.0458-.3388-.1362-.4252-.0905-.0876-.1996-.0942-.3278-.0205Z" style="fill:#fff"></path><path d="M111.9213,159.13961c0-.212,.0929-.4135,.2231-.4894,.1295-.0751,.2144,.0251,.2181,.234,0,.1996-.0849,.4029-.2219,.4817-.1301,.0759-.2193-.0268-.2193-.2263Zm0,2.0163c0-.2119,.0929-.4134,.2231-.4893,.1295-.0752,.2144,.0251,.2181,.2339,0,.1996-.0849,.403-.2219,.4818-.1301,.0759-.2193-.0268-.2193-.2264Z" style="fill:#fff"></path><path d="M118.5244,158.64291l-.9276,.5357c-.2554,.1473-.4747,.1342-.6556-.0399-.181-.1739-.2715-.4586-.2715-.8527v-2.8554c0-.3941,.0905-.7823,.2715-1.1661,.1809-.3836,.4002-.6493,.6556-.7966l.9276-.5358c.2559-.148,.474-.1334,.6556,.0399,.1809,.174,.272,.458,.272,.8521v2.8554c0,.3941-.0911,.783-.272,1.1667-.1816,.3844-.3997,.6486-.6556,.7967Zm-.9276-.1781l.9276-.5358c.0749-.0431,.1481-.1152,.2212-.2169l-1.6124-2.487v2.7934c0,.197,.0459,.3386,.1363,.4251,.0905,.0888,.1996,.0942,.3273,.0212Zm.9276-4.8189l-.9276,.5358c-.0769,.0441-.1513,.1176-.2207,.2163l1.6124,2.4883v-2.7947c0-.1971-.0458-.3387-.1363-.4251-.0905-.0876-.1996-.0943-.3278-.0206Z" style="fill:#fff"></path></g></g><polygon points="109.6123 141.66621 116.6184 137.62121 116.6183 146.97331 109.6126 151.01771 109.6123 141.66621" style="fill:#fe5000"></polygon><polygon points="115.5691 146.31751 116.6183 146.97331 116.6184 137.62121 115.5692 138.22691 115.5691 146.31751" style="opacity:.2"></polygon><polygon points="115.5692 138.22691 109.6123 141.66621 109.6126 149.75631 115.5691 146.31751 115.5692 138.22691" style="fill:#fe5000"></polygon><polygon points="115.5692 138.22691 109.6123 141.66621 109.6126 149.75631 115.5691 146.31751 115.5692 138.22691" style="fill:#fff;opacity:.5"></polygon><path d="M113.0666,146.64741l-.9518,.5497c-.2628,.1513-.4875,.139-.6734-.0404-.1859-.1786-.2784-.4709-.2784-.8757v-2.9307c0-.4049,.0925-.8033,.2784-1.1965,.1859-.3939,.4106-.6667,.6734-.818l.9518-.5497c.2627-.1522,.4866-.138,.6725,.0406,.186,.1794,.2793,.4707,.2793,.8747v2.9315c0,.404-.0933,.8035-.2793,1.1975-.1859,.3939-.4098,.6657-.6725,.817Zm-.9518-.1832l.9518-.5496c.0768-.0441,.152-.1177,.2264-.2218l-1.6541-2.5541v2.8679c0,.2024,.0462,.3481,.1392,.4374,.0929,.0893,.2053,.0959,.3367,.0202Zm.9518-4.9452l-.9518,.5496c-.0793,.0453-.1554,.1199-.2272,.2228l1.6549,2.5531v-2.8678c0-.2025-.0463-.3481-.1396-.4378-.093-.0894-.205-.0964-.3363-.0199Z" style="fill:#fff"></path></g><g><polygon points="136.8273 102.34381 88.912 130.01751 88.912 138.31511 136.8272 110.64141 136.8273 102.34381" style="fill:#fe5000"></polygon><polygon points="136.8273 102.34381 88.912 130.01751 88.912 138.31511 136.8272 110.64141 136.8273 102.34381" style="fill:#fff;opacity:.3"></polygon><polygon points="136.8273 102.34381 134.2498 100.85571 86.3345 128.52951 88.912 130.01751 136.8273 102.34381" style="fill:#fe5000"></polygon><polygon points="86.3345 128.52951 86.3343 136.82711 88.912 138.31511 88.912 130.01751 86.3345 128.52951" style="fill:#fe5000"></polygon><polygon points="86.3345 128.52951 86.3343 136.82711 88.912 138.31511 88.912 130.01751 86.3345 128.52951" style="opacity:.2"></polygon></g></g></g></g><g id="freepik--Streetlights--inject-11"><g id="freepik--Lamps--inject-11"><path d="M449.18221,173.3287c1.9964,1.1629,3.5276,2.8811,4.4208,4.8508v-10.5968c0-.2567,.2072-.4639,.4639-.4639,.2565,0,.4638,.2072,.4638,.4639v87.6531c0,.069-.0442,.1381-.1381,.1924-.1778,.1037-.4739,.1037-.6565,0-.0887-.0543-.1331-.1234-.1331-.1924v-73.8725c-.2848-2.9538-2.0831-5.7018-4.8431-7.3097-3.3184-1.9333-7.2611-1.8863-10.8158,.1294l-.4136-.7297c3.8208-2.1671,8.0676-2.2131,11.6517-.1246Z" style="fill:#e0e0e0"></path><path d="M454.53071,185.6652h-.9304v-3.3528c0-1.4198-.3948-2.3548-1.1729-2.7782-1.0733-.585-2.9299-.1779-4.8461,1.0608l-.5302-.82c2.2505-1.4542,4.4346-1.8657,5.843-1.0985,.7677,.4176,1.6464,1.3516,1.6464,3.5996l-.0098,3.3891Z" style="fill:#e0e0e0"></path><g><path d="M438.04521,177.2955l-2.082,1.4488c-1.6595,1.1546-4.3359,1.3219-5.9785,.3737-.7598-.4388-1.1318-.9851-1.1318-1.5296,.0002-.2003,.0139-.9737,.0137-1.165-.0005-.6279,.4896-1.251,1.4705-1.7018l3.2818-1.5086c1.8367-.8444,4.2444-.9982,5.3782-.3438,.4241,.2448,.6226,.6041,.6226,1.0181,0,.2003-.0052,.9689-.0024,1.157,.0109,.6894-.5346,1.5293-1.5721,2.2512Z" style="fill:#e0e0e0"></path><path d="M438.99721,172.8692c1.1335,.6545,.7073,2.1212-.952,3.2758l-2.082,1.4486c-1.6595,1.1547-4.3359,1.3219-5.9785,.3737-1.6422-.9482-1.4846-2.4014,.3522-3.2457l3.2818-1.5086c1.8368-.8444,4.2448-.9984,5.3785-.3438Z" style="fill:#f0f0f0"></path><path d="M439.13441,173.8684c-.0101-.2394-.1396-.4239-.3841-.5687-.379-.2194-.9875-.339-1.7056-.339-1.0573,0-2.2593,.2643-3.2168,.7032l-3.2817,1.5112c-.7432,.3392-1.177,.788-1.197,1.2268-.02,.3891,.2943,.7929,.8829,1.1323,.6133,.354,1.4362,.5484,2.319,.5484,1.1671,0,2.3042-.329,3.1272-.8976l2.0798-1.4515c.8576-.5935,1.3963-1.3265,1.3763-1.8651Z" style="fill:#fafafa"></path></g><g><path d="M448.33091,183.2283l-2.082,1.4487c-1.6595,1.1546-4.336,1.3219-5.9785,.3737-.7598-.4387-1.1318-.9851-1.1318-1.5296,.0002-.2003,.0138-.9737,.0137-1.1649-.0005-.6279,.4896-1.251,1.4704-1.7018l3.2819-1.5087c1.8367-.8444,4.2444-.9982,5.3781-.3438,.4242,.2448,.6227,.6041,.6227,1.0181,0,.2002-.0052,.969-.0024,1.157,.0109,.6895-.5347,1.5293-1.5721,2.2513Z" style="fill:#e0e0e0"></path><path d="M449.28291,178.8019c1.1335,.6545,.7073,2.1212-.952,3.2758l-2.082,1.4486c-1.6595,1.1546-4.336,1.3219-5.9785,.3738-1.6422-.9482-1.4846-2.4014,.3522-3.2457l3.2818-1.5087c1.8367-.8444,4.2448-.9983,5.3785-.3438Z" style="fill:#f0f0f0"></path><path d="M449.42011,179.8011c-.0101-.2394-.1396-.424-.3841-.5687-.379-.2195-.9875-.339-1.7056-.339-1.0573,0-2.2593,.2643-3.2169,.7032l-3.2817,1.5112c-.7431,.3392-1.1769,.7881-1.1969,1.2268-.02,.3891,.2943,.7929,.8829,1.1322,.6132,.3541,1.4362,.5485,2.319,.5485,1.167,0,2.3042-.329,3.1271-.8976l2.0798-1.4514c.8577-.5935,1.3963-1.3265,1.3764-1.8652Z" style="fill:#fafafa"></path></g></g><g id="freepik--Lamps-2--inject-11"><path d="M329.20601,104.0593c1.9964,1.1629,3.5275,2.8811,4.4207,4.8508v-10.5968c0-.2567,.2073-.464,.464-.464,.2565,0,.4638,.2073,.4638,.464v87.6531c0,.069-.0443,.1382-.1382,.1924-.1777,.1037-.4738,.1037-.6564,0-.0887-.0542-.1332-.1234-.1332-.1924V112.0939c-.2847-2.9538-2.083-5.7018-4.843-7.3097-3.3185-1.9333-7.2611-1.8863-10.8159,.1294l-.4135-.7297c3.8208-2.1671,8.0677-2.2131,11.6517-.1246Z" style="fill:#e0e0e0"></path><path d="M334.55451,116.3958h-.9305v-3.3527c0-1.4199-.3947-2.3549-1.1729-2.7783-1.0732-.585-2.9298-.1779-4.846,1.0608l-.5302-.82c2.2505-1.4543,4.4346-1.8657,5.8431-1.0985,.7676,.4176,1.6462,1.3516,1.6462,3.5997l-.0097,3.389Z" style="fill:#e0e0e0"></path><g><path d="M318.06901,108.0261l-2.0821,1.4488c-1.6594,1.1546-4.3359,1.3219-5.9784,.3737-.7598-.4388-1.1318-.9851-1.1318-1.5296,.0002-.2003,.0138-.9737,.0136-1.165-.0004-.6279,.4897-1.251,1.4705-1.7018l3.2818-1.5086c1.8368-.8444,4.2445-.9982,5.3782-.3438,.4241,.2448,.6227,.6041,.6227,1.0181,0,.2003-.0053,.9689-.0024,1.157,.0109,.6894-.5347,1.5293-1.5721,2.2512Z" style="fill:#e0e0e0"></path><path d="M319.02101,103.5998c1.1335,.6545,.7073,2.1212-.952,3.2758l-2.0821,1.4486c-1.6594,1.1546-4.3359,1.3219-5.9784,.3737-1.6422-.9482-1.4846-2.4014,.3522-3.2457l3.2818-1.5086c1.8368-.8444,4.2448-.9984,5.3785-.3438Z" style="fill:#f0f0f0"></path><path d="M319.15811,104.599c-.0099-.2394-.1395-.4239-.384-.5687-.379-.2195-.9875-.339-1.7056-.339-1.0573,0-2.2593,.2643-3.2169,.7032l-3.2816,1.5112c-.7432,.3392-1.177,.788-1.197,1.2268-.02,.3891,.2943,.7929,.8828,1.1323,.6134,.354,1.4362,.5484,2.3191,.5484,1.167,0,2.3042-.329,3.1271-.8976l2.0798-1.4515c.8577-.5935,1.3963-1.3264,1.3763-1.8651Z" style="fill:#fafafa"></path></g><g><path d="M328.35461,113.9588l-2.082,1.4488c-1.6594,1.1546-4.3359,1.3219-5.9784,.3737-.7598-.4387-1.1318-.9851-1.1318-1.5296,.0002-.2003,.0138-.9737,.0136-1.1649-.0005-.6279,.4897-1.2511,1.4705-1.7018l3.2818-1.5088c1.8368-.8443,4.2445-.998,5.3782-.3437,.4241,.2448,.6227,.6041,.6227,1.0181,0,.2002-.0053,.969-.0024,1.157,.0109,.6894-.5347,1.5293-1.5722,2.2512Z" style="fill:#e0e0e0"></path><path d="M329.30661,109.5325c1.1336,.6545,.7074,2.1212-.952,3.2758l-2.082,1.4486c-1.6594,1.1546-4.3359,1.3219-5.9784,.3738-1.6422-.9482-1.4846-2.4014,.3521-3.2457l3.2819-1.5088c1.8367-.8443,4.2448-.9982,5.3784-.3437Z" style="fill:#f0f0f0"></path><path d="M329.44381,110.5317c-.01-.2394-.1395-.424-.3841-.5687-.3789-.2195-.9874-.339-1.7056-.339-1.0572,0-2.2593,.2643-3.2168,.7032l-3.2817,1.5112c-.7431,.3392-1.177,.7881-1.1969,1.2268-.02,.3891,.2942,.7929,.8828,1.1322,.6133,.3541,1.4362,.5485,2.3191,.5485,1.167,0,2.3042-.329,3.1271-.8976l2.0798-1.4514c.8577-.5935,1.3963-1.3265,1.3763-1.8652Z" style="fill:#fafafa"></path></g></g></g><g id="freepik--Shadows_2--inject-11"><polygon id="freepik--Shadow-2--inject-11" points="118.9326 263.89311 40.976 308.90141 6.4659 288.91381 84.4225 243.90561 118.9326 263.89311" style="fill:#e0e0e0"></polygon><polygon id="freepik--Shadow-3--inject-11" points="202.7343 215.52961 124.7777 260.53781 90.2676 240.55021 168.2242 195.54201 202.7343 215.52961" style="fill:#e0e0e0"></polygon><polygon id="freepik--Shadow-4--inject-11" points="286.9035 166.94941 208.9469 211.95771 174.4368 191.97011 252.3934 146.96191 286.9035 166.94941" style="fill:#e0e0e0"></polygon></g><g id="freepik--Grandstands--inject-11"><g id="freepik--Bleachers--inject-11"><g id="freepik--Strairs--inject-11"><polygon points="176.2149 176.55221 183.7691 180.91381 256.2224 139.11281 248.6686 134.75161 176.2149 176.55221" style="fill:#455a64"></polygon><polygon points="256.2224 139.11281 256.2224 142.70431 183.7691 184.50481 183.7691 180.91381 256.2224 139.11281" style="fill:#37474f"></polygon><polygon points="183.7688 184.50481 191.3231 188.86621 263.7765 147.06551 256.2227 142.70431 183.7688 184.50481" style="fill:#455a64"></polygon><polygon points="263.7765 147.06551 263.7765 150.65701 191.3231 192.45761 191.3231 188.86621 263.7765 147.06551" style="fill:#37474f"></polygon><polygon points="191.3231 192.45761 198.8766 196.81911 271.3303 155.01821 263.7765 150.65701 191.3231 192.45761" style="fill:#455a64"></polygon><polygon points="271.3303 155.01821 271.3303 158.60971 198.8766 200.41031 198.8766 196.81911 271.3303 155.01821" style="fill:#37474f"></polygon><polygon points="198.8766 200.41031 206.4309 204.77181 278.8842 162.97091 271.3303 158.60971 198.8766 200.41031" style="fill:#455a64"></polygon><polygon points="278.8842 162.97091 278.8842 166.56241 206.4309 208.36281 206.4309 204.77181 278.8842 162.97091" style="fill:#37474f"></polygon><polygon points="183.7688 184.50481 183.7691 180.91381 176.2149 176.55221 176.2149 190.92881 206.4309 208.36281 206.4309 204.77181 198.8766 200.41031 198.8766 196.81911 191.3231 192.45761 191.3231 188.86681 183.7688 184.50481" style="fill:#263238"></polygon></g><g id="freepik--Strairs-2--inject-11"><polygon points="92.203 225.05441 99.7571 229.41601 172.2105 187.61501 164.6566 183.25381 92.203 225.05441" style="fill:#455a64"></polygon><polygon points="172.2105 187.61501 172.2105 191.20651 99.7571 233.00691 99.7571 229.41601 172.2105 187.61501" style="fill:#37474f"></polygon><polygon points="99.7568 233.00701 107.3111 237.36841 179.7646 195.56761 172.2108 191.20651 99.7568 233.00701" style="fill:#455a64"></polygon><polygon points="179.7646 195.56761 179.7646 199.15911 107.3111 240.95971 107.3111 237.36841 179.7646 195.56761" style="fill:#37474f"></polygon><polygon points="107.3111 240.95971 114.8647 245.32131 187.3184 203.52031 179.7646 199.15921 107.3111 240.95971" style="fill:#455a64"></polygon><polygon points="187.3184 203.52031 187.3184 207.11191 114.8647 248.91241 114.8647 245.32131 187.3184 203.52031" style="fill:#37474f"></polygon><polygon points="114.8647 248.91241 122.4189 253.27401 194.8723 211.47301 187.3184 207.11191 114.8647 248.91241" style="fill:#455a64"></polygon><polygon points="194.8723 211.47301 194.8723 215.06451 122.4189 256.86501 122.4189 253.27401 194.8723 211.47301" style="fill:#37474f"></polygon><polygon points="99.7568 233.00701 99.7571 229.41601 92.203 225.05441 92.203 239.43101 122.4189 256.86501 122.4189 253.27401 114.8647 248.91241 114.8647 245.32131 107.3111 240.95971 107.3111 237.36901 99.7568 233.00701" style="fill:#263238"></polygon></g><g id="freepik--Strairs-3--inject-11"><polygon points="8.191 273.55801 15.7452 277.91961 88.1985 236.11861 80.6447 231.75741 8.191 273.55801" style="fill:#455a64"></polygon><polygon points="88.1985 236.11861 88.1985 239.71011 15.7452 281.51051 15.7452 277.91961 88.1985 236.11861" style="fill:#37474f"></polygon><polygon points="15.7449 281.51061 23.2992 285.87201 95.7526 244.07121 88.1989 239.71011 15.7449 281.51061" style="fill:#455a64"></polygon><polygon points="95.7526 244.07121 95.7526 247.66271 23.2992 289.46331 23.2992 285.87201 95.7526 244.07121" style="fill:#37474f"></polygon><polygon points="23.2992 289.46331 30.8528 293.82491 103.3064 252.02391 95.7526 247.66281 23.2992 289.46331" style="fill:#455a64"></polygon><polygon points="103.3064 252.02391 103.3064 255.61551 30.8528 297.41601 30.8528 293.82491 103.3064 252.02391" style="fill:#37474f"></polygon><polygon points="30.8528 297.41601 38.407 301.77761 110.8603 259.97661 103.3064 255.61551 30.8528 297.41601" style="fill:#455a64"></polygon><polygon points="110.8603 259.97661 110.8603 263.56811 38.407 305.36861 38.407 301.77761 110.8603 259.97661" style="fill:#37474f"></polygon><polygon points="15.7449 281.51061 15.7452 277.91961 8.191 273.55801 8.191 287.93461 38.407 305.36861 38.407 301.77761 30.8528 297.41601 30.8528 293.82491 23.2992 289.46331 23.2992 285.87261 15.7449 281.51061" style="fill:#263238"></polygon></g></g></g><g id="freepik--Shadow_1--inject-11"><polygon id="freepik--Shadow-5--inject-11" points="26.0082 339.86641 298.1141 182.76621 500.2132 299.44811 228.1074 456.54841 26.0082 339.86641" style="fill:#e0e0e0"></polygon></g><g id="freepik--Court--inject-11"><g id="freepik--Court-2--inject-11"><g><polygon points="487.2803 283.20231 224.906 434.68421 32.5381 323.62051 294.9124 172.13861 487.2803 283.20231" style="fill:#fe5000"></polygon><polygon points="487.2803 283.20231 224.906 434.68421 32.5381 323.62051 294.9124 172.13861 487.2803 283.20231" style="fill:#fff;opacity:.6"></polygon><polygon points="224.906 448.45551 224.906 434.68421 487.2803 283.20231 487.2803 296.97361 224.906 448.45551" style="fill:#fe5000"></polygon><polygon points="224.906 448.45551 224.906 434.68421 487.2803 283.20231 487.2803 296.97361 224.906 448.45551" style="fill:#fff;opacity:.3"></polygon><polygon points="32.5381 323.62051 224.906 434.68421 224.906 448.45551 32.5381 337.39181 32.5381 323.62051" style="fill:#fe5000"></polygon></g><g><ellipse cx="259.8135" cy="303.35616" rx="16.52708" ry="29.21317" transform="translate(-72.7476 524.55998) rotate(-83.05111)" style="fill:#fe5000"></ellipse><ellipse cx="259.8135" cy="303.35616" rx="16.52708" ry="29.21317" transform="translate(-72.7476 524.55998) rotate(-83.05111)" style="fill:#fff;opacity:.3"></ellipse><path d="M263.98438,320.62328c-8.15625,0-16.75293-1.98145-23.4502-5.84766-6.53857-3.77539-10.28857-8.81396-10.28857-13.82422,0-4.1748,2.6084-7.97998,7.34521-10.71436,10.63086-6.13818,29.24805-5.37451,41.50195,1.69971h0c6.53906,3.77539,10.28906,8.81396,10.28809,13.82471,0,4.17432-2.6084,7.97949-7.34473,10.71387-4.82031,2.7832-11.28418,4.14795-18.05176,4.14795Zm-8.34082-33.54932c-6.58643,0-12.86865,1.32471-17.55273,4.0293-4.41406,2.54834-6.84521,6.0459-6.84521,9.84814,0,4.64355,3.56787,9.36621,9.78857,12.95801,11.97852,6.91553,30.14648,7.67773,40.50195,1.69971,4.41406-2.54834,6.84473-6.04541,6.84473-9.84766,.00098-4.64355-3.56836-9.3667-9.78809-12.9585h0c-6.55957-3.78711-14.97656-5.729-22.94922-5.729Z" style="fill:#fff"></path><polygon points="172.7342 328.94681 116.6038 361.35381 159.3585 386.03831 215.4892 353.63131 172.7342 328.94681" style="fill:#fe5000"></polygon><polygon points="172.7342 328.94681 116.6038 361.35381 159.3585 386.03831 215.4892 353.63131 172.7342 328.94681" style="fill:#fff;opacity:.3"></polygon><path d="M159.3584,386.61547l-43.75439-25.26172,57.13037-32.98389,43.75488,25.26123-57.13086,32.98438Zm-41.75439-25.26172l41.75439,24.10742,55.13086-31.83008-41.75488-24.10693-55.13037,31.82959Z" style="fill:#fff"></path><polygon points="360.2684 220.67391 304.138 253.08091 346.8927 277.76541 403.0231 245.35851 360.2684 220.67391" style="fill:#fe5000"></polygon><g style="opacity:.3"><polygon points="360.2684 220.67391 304.138 253.08091 346.8927 277.76541 403.0231 245.35851 360.2684 220.67391" style="fill:#fff"></polygon></g><path d="M346.89258,278.34252l-43.75488-25.26172,57.13086-32.98389,43.75488,25.26172-57.13086,32.98389Zm-41.75488-25.26172l41.75488,24.10742,55.13086-31.82959-41.75488-24.10742-55.13086,31.82959Z" style="fill:#fff"></path><path d="M223.45898,423.62377l-.25-.14404L51.69482,324.4558l244.66455-141.25684,.25,.14404,171.51367,99.02393-244.66406,141.25684ZM53.69482,324.4558l169.76416,98.01367,242.66406-140.10254-169.76367-98.01367L53.69482,324.4558Z" style="fill:#fff"></path><rect x="259.52336" y="205.01902" width="1.00016" height="196.91703" transform="translate(-132.80752 376.92571) rotate(-60.00001)" style="fill:#fff"></rect><path d="M329.57227,282.23559c-7.9375,0-16.30273-1.92773-22.82031-5.69043-6.36621-3.67529-10.0166-8.58154-10.0166-13.46143,0-4.06641,2.54004-7.77295,7.15234-10.43604l.5,.86621c-4.29004,2.47705-6.65234,5.87549-6.65234,9.56982,0,4.5127,3.46875,9.10352,9.5166,12.59521,11.65137,6.72705,29.32129,7.46729,39.39062,1.65332l.5,.86621c-4.69141,2.70898-10.98438,4.03711-17.57031,4.03711Z" style="fill:#fff"></path><path d="M372.27148,297.10619c-24.55273,.00049-50.44629-5.96924-70.62012-17.61621-19.51074-11.26465-30.70117-26.22803-30.70117-41.05273,0-12.28467,7.73145-23.51416,21.77148-31.62012l22.02344-12.71484,.5,.86621-22.02344,12.71484c-13.7168,7.91943-21.27148,18.84131-21.27148,30.75391,0,14.45801,11.00781,29.10547,30.20117,40.18652,36.61328,21.13818,92.18262,23.45166,123.87207,5.15527l22.02344-12.71484,.5,.86621-22.02344,12.71484c-14.48438,8.3623-33.9082,12.46094-54.25195,12.46094Z" style="fill:#fff"></path><g><path d="M304.3877,253.51391l-.5-.86621c.29297-.16895,.59082-.33203,.89453-.48975l.46094,.8877c-.29199,.15088-.57617,.30713-.85547,.46826Z" style="fill:#fff"></path><path d="M350.53418,275.72338l-.68359-.73047c.49219-.45996,.93945-.94385,1.3291-1.43848l.78516,.61914c-.4209,.53418-.90234,1.05566-1.43066,1.5498Zm3.04199-4.29492l-.92578-.37598c.24316-.59961,.41992-1.22217,.52539-1.84961l.98633,.16602c-.11816,.69922-.31445,1.39209-.58594,2.05957Zm-.39453-5.10303c-.10059-.62158-.2666-1.25146-.49512-1.87207l.93945-.34473c.24902,.68066,.43164,1.37305,.54199,2.05762l-.98633,.15918Zm-1.83203-4.48047c-.34863-.52783-.75-1.05664-1.19238-1.57129l.75977-.65137c.46875,.54639,.89453,1.10889,1.2666,1.6709l-.83398,.55176Zm-3.29785-3.6748c-.49023-.42383-1.01562-.84131-1.5625-1.2417l.5918-.80664c.56738,.41602,1.11426,.85059,1.625,1.2915l-.6543,.75684Zm-4.07324-2.88623l-.19824-.11523c-.51074-.29492-1.03125-.57715-1.56152-.84814l.45508-.89062c.5459,.27881,1.08203,.56982,1.60449,.87158l.20605,.12012-.50586,.8623Zm-4.49805-2.22412c-.61523-.25537-1.24219-.49609-1.87793-.72363l.33594-.94141c.65137,.23242,1.29395,.47998,1.9248,.74121l-.38281,.92383Zm-31.50391-1.22949l-.35352-.93555c.62988-.23779,1.28906-.46094,1.95996-.66406l.28906,.95703c-.64941,.19678-1.28711,.4126-1.89551,.64258Zm26.74805-.41211c-.64453-.18164-1.2959-.35059-1.95215-.50537l.23047-.97363c.66992,.15869,1.33496,.33057,1.99316,.51611l-.27148,.96289Zm-21.93555-.97021l-.20312-.97949c.66504-.13818,1.3418-.26025,2.02734-.36572l.15234,.98828c-.66797,.10254-1.32715,.22168-1.97656,.35693Zm17.02051-.13818c-.66211-.11328-1.32715-.21338-1.99316-.30029l.12891-.99121c.67969,.08789,1.3584,.18994,2.03418,.30615l-.16992,.98535Zm-12.04688-.56689l-.08008-.99707c.67871-.05469,1.36426-.09473,2.05469-.11914l.03516,.99902c-.6748,.02441-1.34473,.06348-2.00977,.11719Zm7.0459-.03174c-.67285-.04639-1.34473-.0791-2.01367-.09717l.02734-1c.68262,.01904,1.36816,.05176,2.05469,.09912l-.06836,.99805Z" style="fill:#fff"></path><path d="M347.14258,278.19848l-.5-.86621c.28711-.16602,.56641-.33545,.83496-.50879l.54297,.83984c-.28223,.18213-.5752,.36035-.87793,.53516Z" style="fill:#fff"></path></g><path d="M215.73926,354.0642l-.5-.86621c4.29004-2.47656,6.65283-5.875,6.65283-9.56934,0-4.5127-3.46875-9.10352-9.51709-12.59521-11.64941-6.72656-29.32031-7.46777-39.39062-1.65332l-.5-.86621c10.3457-5.97412,28.46484-5.23291,40.39062,1.65332,6.36572,3.67529,10.01709,8.58203,10.01709,13.46143,0,4.06641-2.54053,7.77246-7.15283,10.43555Z" style="fill:#fff"></path><path d="M204.88232,412.6101l-.5-.86621,22.02295-12.71484c13.71729-7.91943,21.27148-18.84131,21.27148-30.75391,0-14.45801-11.00781-29.10547-30.20117-40.18652-36.61426-21.13916-92.18359-23.45166-123.87207-5.15527l-22.02295,12.71484-.5-.86621,22.02295-12.71484c31.96533-18.45508,87.98242-16.14355,124.87207,5.15527,19.51123,11.26465,30.70117,26.22803,30.70117,41.05273,0,12.28467-7.73193,23.51416-21.77148,31.62012l-22.02295,12.71484Z" style="fill:#fff"></path><g><path d="M172.14893,329.8894l-.54199-.84082c.28271-.18213,.5752-.35986,.87744-.53467l.5,.86621c-.2876,.16602-.56641,.33594-.83545,.50928Z" style="fill:#fff"></path><path d="M196.76807,358.0974c-.68311-.01953-1.36865-.05273-2.05518-.10059l.06934-.99805c.67285,.04688,1.34473,.08008,2.01416,.09863l-.02832,1Zm3.08691-.01025l-.03516-.99902c.67529-.02393,1.34619-.0625,2.01025-.11572l.08008,.99707c-.67969,.0542-1.36523,.09375-2.05518,.11768Zm-8.21143-.39746c-.6792-.08838-1.35791-.19141-2.03369-.30762l.16992-.98535c.66211,.11377,1.32715,.21436,1.99365,.30176l-.12988,.99121Zm13.33643-.07568l-.15137-.98828c.66895-.10254,1.3291-.2207,1.97803-.35547l.20312,.97949c-.6665,.1377-1.34326,.25977-2.02979,.36426Zm-18.39258-.8501c-.66895-.1582-1.3335-.33105-1.99121-.51758l.27246-.96191c.64404,.18262,1.29443,.35156,1.94922,.50684l-.23047,.97266Zm23.42627-.27344l-.28906-.95703c.64648-.19531,1.28467-.41064,1.89746-.64111l.35156,.93652c-.6333,.23779-1.29297,.46045-1.95996,.66162Zm-28.35938-1.18506c-.6499-.2334-1.29053-.48047-1.9209-.7417l.38281-.92383c.61572,.25537,1.2417,.49658,1.87598,.72412l-.33789,.94141Zm-4.729-2.03711c-.53662-.27441-1.0625-.56055-1.57715-.85742l-.23438-.13672,.50781-.86133,.2251,.13086c.50146,.29004,1.0127,.56738,1.53369,.83398l-.45508,.89062Zm-4.40576-2.69727c-.57227-.42041-1.11816-.85596-1.62305-1.29443l.65527-.75488c.48486,.4209,1.00977,.83936,1.55957,1.24365l-.5918,.80566Zm-3.83154-3.50684c-.46582-.5459-.89111-1.10889-1.2627-1.67334l.83496-.5498c.34912,.52979,.74902,1.05908,1.18848,1.57373l-.76074,.64941Zm-2.69727-4.49268c-.24756-.68262-.42773-1.37549-.53564-2.05957l.98828-.15527c.09766,.62061,.26172,1.25098,.4873,1.87305l-.93994,.3418Zm.46582-5.09229l-.98535-.16992c.12012-.69727,.31934-1.38965,.5918-2.05664l.92578,.37793c-.24561,.60059-.42432,1.22217-.53223,1.84863Zm2.01074-4.34619l-.7832-.62207c.42432-.53418,.90674-1.0542,1.43457-1.54541l.68164,.73145c-.49121,.45752-.93994,.94043-1.33301,1.43604Z" style="fill:#fff"></path><path d="M214.84473,354.55443l-.46094-.8877c.29102-.15088,.57568-.30762,.85547-.46875l.5,.86621c-.29248,.16895-.59082,.33252-.89453,.49023Z" style="fill:#fff"></path></g></g></g></g><g id="freepik--Basketball_hoops--inject-11"><g id="freepik--Backboard--inject-11"><g><polygon points="370.6601 169.33831 373.3222 170.87501 377.8347 236.71971 375.1727 235.18301 370.6601 169.33831" style="fill:#263238"></polygon><path d="M377.8347,236.71971l2.2327-1.2891-4.6772-68.2467h0l.0007-.0038-17.245,5.4832v3.0319l5.3766-1.7076,10.4814,6.8335,3.8308,55.8986Zm-11.1702-63.7301l6.6577-2.1146,.4632,6.757-7.1209-4.6424Z" style="fill:#455a64"></path><polygon points="372.7288 165.64341 375.3909 167.18011 358.1459 172.66331 355.4839 171.12661 372.7288 165.64341" style="fill:#37474f"></polygon><polygon points="355.4839 171.12661 358.1459 172.66331 358.1459 175.69521 355.4839 174.15851 355.4839 171.12661" style="fill:#263238"></polygon><polygon points="363.3174 174.05271 363.5225 173.98761 374.0039 180.82111 371.3419 179.28441 363.3174 174.05271"></polygon></g><g><g><polygon points="340.8038 157.23881 370.1546 174.18451 370.1546 199.03301 340.8038 182.08731 340.8038 157.23881" style="fill:#37474f"></polygon><polygon points="342.0877 181.34571 342.0877 159.46261 368.8703 174.92571 368.8703 196.80971 342.0877 181.34571" style="fill:#fafafa"></polygon><path d="M362.04883,189.36986l-13.13965-7.5874v-11.07422l13.13965,7.58691v11.07471Zm-12.13965-8.16455l11.13965,6.43213v-8.76514l-11.13965-6.43164v8.76465Z" style="fill:#fe5000"></path><polygon points="371.4888 173.41421 370.1546 174.18451 340.8038 157.23881 342.138 156.46861 371.4888 173.41421" style="fill:#455a64"></polygon><polygon points="370.1546 199.03301 370.1546 174.18451 371.4888 173.41421 371.4888 198.26271 370.1546 199.03301" style="fill:#263238"></polygon></g><g><g><polygon points="353.2396 185.38341 353.2396 186.69201 355.9775 188.27271 355.9775 186.96411 353.2396 185.38341" style="fill:#fe5000"></polygon><polygon points="353.2396 185.38341 353.2396 186.69201 355.9775 188.27271 355.9775 186.96411 353.2396 185.38341" style="opacity:.35"></polygon><polygon points="354.221 183.77791 351.4831 185.35861 354.221 186.93931 356.9588 185.35861 354.221 183.77791" style="fill:#fe5000"></polygon><polygon points="354.221 186.93931 354.221 188.24791 355.9775 187.23381 355.9775 188.27271 356.9588 187.70611 356.9588 185.35861 354.221 186.93931" style="fill:#fe5000"></polygon><polygon points="354.221 186.93931 354.221 188.24791 355.9775 187.23381 355.9775 188.27271 356.9588 187.70611 356.9588 185.35861 354.221 186.93931" style="opacity:.2"></polygon><polygon points="351.4831 185.35861 351.4831 186.66721 354.221 188.24791 354.221 186.93931 351.4831 185.35861" style="fill:#fe5000"></polygon><polygon points="351.4831 185.35861 351.4831 186.66721 354.221 188.24791 354.221 186.93931 351.4831 185.35861" style="opacity:.35"></polygon></g><g><g><path d="M349.32617,192.4099c-.03906,0-.07715-.01807-.10156-.05225-1.00391-1.39893-1.87891-3.5791-2.2959-5.17285-.5127,2.15332-1.75586,3.72607-2.48926,4.50391-.04688,.05078-.12598,.05273-.17676,.00488-.0498-.04736-.05273-.12646-.00488-.17676,.77539-.82275,2.1377-2.55811,2.53906-4.93408,.00977-.05908,.06055-.10303,.12109-.104h.00195c.05859,0,.11035,.0415,.12207,.09961,.33105,1.58008,1.2793,4.09131,2.38574,5.63379,.04004,.05615,.02734,.13428-.02832,.17432-.02246,.01562-.04785,.02344-.07324,.02344Z" style="fill:#263238"></path><path d="M346.91992,192.31811c-.04004,0-.0791-.01953-.10352-.05518-.9209-1.36426-1.74707-3.69336-1.98438-5.06836-.01172-.06836,.03418-.13281,.10156-.14453,.07227-.01758,.13281,.03418,.14453,.10156,.2334,1.3501,1.04297,3.63477,1.94531,4.97168,.03906,.05713,.02344,.13477-.0332,.17334-.02148,.01465-.0459,.02148-.07031,.02148Z" style="fill:#263238"></path><path d="M344.86914,191.96899c-.0459,0-.08984-.02539-.1123-.06934-.5-1.00586-1.13867-2.58447-1.43066-3.99707-.01465-.06787,.0293-.13379,.09668-.14795,.07227-.0127,.13379,.03027,.14746,.09717,.28809,1.38916,.91797,2.94434,1.41113,3.93652,.03027,.06201,.00488,.13672-.05664,.16748-.01758,.00879-.03711,.01318-.05566,.01318Z" style="fill:#263238"></path><path d="M342.56738,190.22924c-.03809,0-.0752-.01709-.09961-.0498-.04199-.05566-.03027-.13379,.02441-.17529,.97461-.73047,1.71777-1.8501,1.89258-2.85254,.01172-.06738,.07715-.11816,.14453-.10156,.06836,.01172,.11328,.07666,.10156,.14453-.18848,1.07812-.9502,2.23145-1.98828,3.00977-.02246,.0166-.04883,.0249-.0752,.0249Z" style="fill:#263238"></path><path d="M347.08691,192.4099c-.02539,0-.05078-.00781-.07324-.02344-.05566-.04004-.06836-.11816-.02832-.17432,1.10547-1.54297,2.05371-4.05469,2.38477-5.63379,.01172-.05811,.06348-.09961,.12207-.09961h.00195c.06055,.00098,.11133,.04492,.12109,.104,.40137,2.37598,1.76367,4.11133,2.53906,4.93408,.04785,.05029,.04492,.12939-.00488,.17676-.0498,.04785-.12891,.0459-.17676-.00488-.7334-.77783-1.97656-2.35059-2.48926-4.50391-.41699,1.59375-1.29199,3.77295-2.29492,5.17285-.02441,.03418-.0625,.05225-.10156,.05225Z" style="fill:#263238"></path><path d="M349.49219,192.31811c-.02441,0-.04883-.00684-.07031-.02148-.05664-.03857-.07227-.11621-.0332-.17334,.90234-1.33691,1.71191-3.62158,1.94531-4.97168,.01172-.06738,.06738-.11816,.14453-.10156,.06738,.01172,.11328,.07617,.10156,.14453-.2373,1.375-1.06348,3.7041-1.98438,5.06836-.02441,.03564-.06348,.05518-.10352,.05518Z" style="fill:#263238"></path><path d="M351.54395,191.96899c-.01855,0-.03809-.00439-.05566-.01318-.06152-.03076-.08691-.10547-.05664-.16748,.49316-.99365,1.12305-2.5498,1.41016-3.93652,.01367-.06738,.06934-.11084,.14746-.09717,.06738,.01416,.11133,.08008,.09668,.14795-.29199,1.40967-.92969,2.98926-1.42969,3.99707-.02246,.04395-.06641,.06934-.1123,.06934Z" style="fill:#263238"></path><path d="M353.84473,190.22924c-.02637,0-.05273-.0083-.0752-.0249-1.03809-.77832-1.7998-1.93164-1.98828-3.00977-.01172-.06787,.0332-.13281,.10156-.14453,.0625-.01758,.13281,.03418,.14453,.10156,.1748,1.00244,.91797,2.12207,1.89258,2.85254,.05469,.0415,.06641,.11963,.02441,.17529-.02441,.03271-.06152,.0498-.09961,.0498Z" style="fill:#263238"></path></g><g><path d="M353.0487,186.02511c-2.6746-1.5455-7.0106-1.5455-9.6852,0-1.3362,.7705-2.0065,1.7838-2.0065,2.7949v1.227c0,1.0133,.6703,2.0244,2.0065,2.7971,2.6746,1.5433,7.0106,1.5433,9.6852,0,1.3384-.7727,2.0065-1.7838,2.0065-2.7971v-1.227c0-1.0111-.6681-2.0244-2.0065-2.7949Zm-.677,5.1042c-2.3005,1.2761-6.0307,1.2761-8.3312,0-.8663-.481-1.4052-1.0734-1.619-1.6947,.2116-.6213,.7527-1.2137,1.619-1.6947,2.3005-1.2761,6.0307-1.2761,8.3312,0,.8685,.481,1.4096,1.0734,1.6212,1.6947-.2138,.6213-.7527,1.2137-1.6212,1.6947Z" style="fill:#263238"></path><path d="M353.0487,186.02511c-2.6746-1.5455-7.0106-1.5455-9.6852,0-1.3362,.7705-2.0065,1.7838-2.0065,2.7949,0,.8128,.4298,1.6212,1.2894,2.3071l.0023,.0045c.2115,.1692,.4498,.3318,.7148,.4855,2.6746,1.5433,7.0106,1.5433,9.6874,0,.265-.1537,.5033-.3163,.7148-.4855l.0023-.0045c.8574-.6859,1.2872-1.4943,1.2872-2.3071,0-1.0111-.6681-2.0244-2.0065-2.7949Zm-.677,5.1042c-2.3005,1.2761-6.0307,1.2761-8.3312,0-.8663-.481-1.4052-1.0734-1.619-1.6947,.2116-.6213,.7527-1.2137,1.619-1.6947,2.3005-1.2761,6.0307-1.2761,8.3312,0,.8685,.481,1.4096,1.0734,1.6212,1.6947-.2138,.6213-.7527,1.2137-1.6212,1.6947Z" style="fill:#455a64"></path><path d="M354.0976,188.82001c0,.2071-.0356,.4119-.1047,.6146-.2116-.6213-.7527-1.2137-1.6212-1.6947-2.3005-1.2761-6.0307-1.2761-8.3312,0-.8663,.481-1.4074,1.0734-1.619,1.6947-.0691-.2027-.1047-.4075-.1047-.6146,0-.8352,.5746-1.6703,1.7237-2.3094,2.3005-1.2739,6.0307-1.2739,8.3312,0,1.1513,.6391,1.7259,1.4742,1.7259,2.3094Z" style="fill:#37474f"></path></g><g><path d="M349.81934,203.16772c-.03125,0-.0625-.01172-.08691-.03516-2.25781-2.1875-4.24219-5.72119-5.36426-9.52734-.26074,1.1543-.57227,1.87842-.58789,1.9126-.02734,.06348-.10059,.09229-.16406,.06494-.06348-.02783-.09277-.10156-.06445-.16455,.00391-.00928,.4082-.94775,.6748-2.36035,.01074-.05713,.05957-.09912,.11816-.10156,.0498-.00342,.10938,.03564,.125,.0918,1.08008,3.95068,3.1123,7.65332,5.43652,9.90479,.0498,.04834,.05078,.12744,.00293,.17676-.02441,.02539-.05762,.03809-.08984,.03809Z" style="fill:#263238"></path><path d="M346.59277,203.16772c-.03906,0-.07715-.01807-.10156-.05225-.96484-1.34229-1.64355-2.49854-2.26074-4.43262-.02051-.06592,.01562-.13623,.08105-.15723,.06445-.01855,.13672,.01514,.15723,.08105,.60645,1.90283,1.27539,3.04053,2.22559,4.36328,.04004,.05566,.02734,.13379-.02832,.17432-.02246,.01562-.04785,.02344-.07324,.02344Z" style="fill:#263238"></path><path d="M344.34961,198.50365c-.03027,0-.06055-.01123-.08496-.0332-.05078-.04688-.05371-.12598-.00684-.17676,.0166-.01807,1.69238-1.85156,2.54395-4.59766,.02051-.06641,.08887-.09961,.15625-.08252,.06543,.02051,.10254,.09082,.08203,.15674-.86816,2.80225-2.58105,4.6748-2.59863,4.69336-.02441,.02637-.05859,.04004-.0918,.04004Z" style="fill:#263238"></path><path d="M344.56836,201.90258c-.01562,0-.03125-.00293-.0459-.00879-.04785-.01904-.0791-.06494-.0791-.11621,0-5.22363-1.73047-8.63721-2.56152-10.27783-.07031-.13721-.13281-.26221-.18848-.37402-.03027-.06201-.00488-.13672,.05664-.16748,.06543-.0293,.1377-.00488,.16797,.05713,.05469,.11084,.11719,.23486,.18652,.37109,.82324,1.625,2.51953,4.97119,2.58691,10.07812,2.81934-3.01611,4.22266-5.34717,4.67676-7.75439,.01367-.06836,.07715-.11279,.14648-.1001,.06738,.01318,.1123,.07861,.09961,.146-.47559,2.51855-1.95703,4.94287-4.95508,8.10742-.02441,.02539-.05762,.03906-.09082,.03906Z" style="fill:#263238"></path><path d="M346.59277,203.16772c-.03223,0-.06543-.0127-.08984-.03809-.04785-.04932-.04688-.12842,.00293-.17676,2.32422-2.25146,4.35645-5.9541,5.43652-9.90479,.01465-.05615,.05566-.09717,.125-.0918,.05859,.00244,.10742,.04443,.11816,.10156,.2666,1.4126,.6709,2.35107,.6748,2.36035,.02832,.06299-.00098,.13672-.06445,.16455-.06445,.02734-.13574-.00146-.16406-.06494-.01562-.03418-.32715-.7583-.58789-1.9126-1.12207,3.80615-3.10645,7.33984-5.36426,9.52734-.02441,.02344-.05566,.03516-.08691,.03516Z" style="fill:#263238"></path><path d="M349.81934,203.16772c-.02539,0-.05078-.00781-.07324-.02344-.05566-.04053-.06836-.11865-.02832-.17432,.9502-1.32275,1.61914-2.46045,2.22559-4.36328,.02051-.06592,.09375-.09961,.15723-.08105,.06543,.021,.10156,.09131,.08105,.15723-.61719,1.93408-1.2959,3.09033-2.26074,4.43262-.02441,.03418-.0625,.05225-.10156,.05225Z" style="fill:#263238"></path><path d="M352.0625,198.50365c-.0332,0-.06738-.01367-.0918-.04004-.01758-.01855-1.72949-1.89111-2.59863-4.69336-.02051-.06592,.0166-.13623,.08203-.15674,.06738-.01709,.13574,.01611,.15625,.08252,.85254,2.74609,2.52734,4.57959,2.54395,4.59766,.04688,.05078,.04395,.12988-.00684,.17676-.02441,.02197-.05469,.0332-.08496,.0332Z" style="fill:#263238"></path><path d="M351.84375,201.90258c-.0332,0-.06641-.01367-.09082-.03906-2.99805-3.16455-4.47949-5.58887-4.95508-8.10742-.0127-.06738,.03223-.13281,.09961-.146,.06738-.01172,.13281,.03174,.14648,.1001,.4541,2.40723,1.85742,4.73828,4.67676,7.75439,.06738-5.10693,1.76367-8.45312,2.58691-10.07812,.06934-.13623,.13184-.26025,.18652-.37109,.03027-.06201,.10449-.08643,.16797-.05713,.06152,.03076,.08691,.10547,.05664,.16748-.05566,.11182-.11816,.23682-.18848,.37402-.83105,1.64062-2.56152,5.0542-2.56152,10.27783,0,.05127-.03125,.09717-.0791,.11621-.01465,.00586-.03027,.00879-.0459,.00879Z" style="fill:#263238"></path></g></g></g></g></g><g id="freepik--Backboard-2--inject-11"><g><polygon points="147.5362 268.80891 176.887 285.75451 176.887 310.60311 147.5362 293.65741 147.5362 268.80891" style="fill:#37474f"></polygon><polygon points="148.8201 292.91571 148.8201 271.03261 175.6027 286.49571 175.6027 308.37971 148.8201 292.91571" style="fill:#fafafa"></polygon><path d="M168.78174,300.93969l-13.14062-7.5874v-11.07422l13.14062,7.58691v11.07471Zm-12.14062-8.16455l11.14062,6.43213v-8.76514l-11.14062-6.43164v8.76465Z" style="fill:#fe5000"></path><polygon points="178.2212 284.98431 176.887 285.75451 147.5362 268.80891 148.8704 268.03861 178.2212 284.98431" style="fill:#455a64"></polygon><polygon points="176.887 310.60311 176.887 285.75451 178.2212 284.98431 178.2212 309.83281 176.887 310.60311" style="fill:#263238"></polygon></g><g><polygon points="148.1222 308.75331 156.6229 293.39511 152.5654 296.79161 148.4044 304.30911 148.1222 308.75331" style="fill:#263238"></polygon><path d="M147.2067,298.90861l.0005,.0032-4.6771,73.6474,2.2326-1.289,3.8309-60.3222,10.4816-18.9365,5.3764-4.5005v-3.0319l-17.2449,14.4295Zm1.6056,8.598l.4629-7.2917,6.6577-5.573-7.1206,12.8647Z" style="fill:#455a64"></path><polygon points="144.5451 297.37511 139.868 371.02251 142.5301 372.55921 147.2072 298.91181 144.5451 297.37511" style="fill:#263238"></polygon><polygon points="164.4516 284.47911 161.7896 282.94241 144.5451 297.37511 147.2072 298.91181 164.4516 284.47911" style="fill:#37474f"></polygon></g></g></g></svg>